<?xml version="1.0" encoding="UTF-8"?>
<svg width="30pt" height="30pt" version="1.1" viewBox="0 0 700 700" xmlns="http://www.w3.org/2000/svg" xmlns:xlink="http://www.w3.org/1999/xlink">
 <defs>
  <symbol id="n" overflow="visible">
   <path d="m29.312-1.75c-1.5117 0.78125-3.0898 1.3711-4.7344 1.7656-1.6367 0.40625-3.3398 0.60938-5.1094 0.60938-5.3125 0-9.5273-1.4844-12.641-4.4531-3.1055-2.9688-4.6562-7-4.6562-12.094s1.5508-9.125 4.6562-12.094c3.1133-2.9688 7.3281-4.4531 12.641-4.4531 1.7695 0 3.4727 0.19922 5.1094 0.59375 1.6445 0.39844 3.2227 0.99219 4.7344 1.7812v6.5938c-1.5312-1.0391-3.0391-1.8008-4.5156-2.2812-1.4805-0.48828-3.0391-0.73438-4.6719-0.73438-2.9375 0-5.2461 0.94531-6.9219 2.8281-1.6797 1.875-2.5156 4.4648-2.5156 7.7656 0 3.293 0.83594 5.8828 2.5156 7.7656 1.6758 1.875 3.9844 2.8125 6.9219 2.8125 1.6328 0 3.1914-0.23828 4.6719-0.71875 1.4766-0.48828 2.9844-1.2539 4.5156-2.2969z"/>
  </symbol>
  <symbol id="b" overflow="visible">
   <path d="m21.453-17.406c-0.67969-0.3125-1.3516-0.53906-2.0156-0.6875-0.65625-0.15625-1.3203-0.23438-1.9844-0.23438-1.9688 0-3.4844 0.63281-4.5469 1.8906-1.0547 1.2617-1.5781 3.0703-1.5781 5.4219v11.016h-7.6562v-23.922h7.6562v3.9219c0.97656-1.5625 2.1016-2.7031 3.375-3.4219 1.2812-0.71875 2.8125-1.0781 4.5938-1.0781 0.25 0 0.52344 0.011719 0.82812 0.03125 0.30078 0.023438 0.73438 0.070312 1.2969 0.14062z"/>
  </symbol>
  <symbol id="c" overflow="visible">
   <path d="m27.562-12.031v2.1875h-17.891c0.1875 1.793 0.83203 3.1367 1.9375 4.0312 1.1133 0.89844 2.6719 1.3438 4.6719 1.3438 1.6016 0 3.25-0.23438 4.9375-0.70312 1.6875-0.47656 3.4219-1.2031 5.2031-2.1719v5.8906c-1.8047 0.6875-3.6094 1.2031-5.4219 1.5469-1.8125 0.35156-3.6211 0.53125-5.4219 0.53125-4.3359 0-7.7031-1.0977-10.109-3.2969-2.3984-2.207-3.5938-5.2969-3.5938-9.2656 0-3.9062 1.1758-6.9727 3.5312-9.2031 2.3633-2.2383 5.6094-3.3594 9.7344-3.3594 3.7578 0 6.7695 1.1367 9.0312 3.4062 2.2578 2.2617 3.3906 5.2812 3.3906 9.0625zm-7.8594-2.5312c0-1.457-0.42969-2.6289-1.2812-3.5156-0.84375-0.89453-1.9492-1.3438-3.3125-1.3438-1.4922 0-2.6992 0.41797-3.625 1.25-0.91797 0.83594-1.4922 2.0391-1.7188 3.6094z"/>
  </symbol>
  <symbol id="a" overflow="visible">
   <path d="m14.391-10.766c-1.5938 0-2.793 0.27344-3.5938 0.8125-0.80469 0.54297-1.2031 1.3398-1.2031 2.3906 0 0.96875 0.32031 1.7305 0.96875 2.2812 0.64453 0.54297 1.5469 0.8125 2.7031 0.8125 1.4375 0 2.6445-0.51562 3.625-1.5469 0.98828-1.0312 1.4844-2.3203 1.4844-3.875v-0.875zm11.688-2.8906v13.656h-7.7031v-3.5469c-1.0312 1.4492-2.1875 2.5078-3.4688 3.1719s-2.8398 1-4.6719 1c-2.4805 0-4.4961-0.72266-6.0469-2.1719-1.543-1.4453-2.3125-3.3203-2.3125-5.625 0-2.8125 0.96094-4.8672 2.8906-6.1719 1.9375-1.3125 4.9688-1.9688 9.0938-1.9688h4.5156v-0.60938c0-1.207-0.48047-2.0938-1.4375-2.6562-0.94922-0.5625-2.4375-0.84375-4.4688-0.84375-1.6367 0-3.1562 0.16797-4.5625 0.5-1.4062 0.32422-2.7188 0.8125-3.9375 1.4688v-5.8281c1.6445-0.40625 3.2891-0.70703 4.9375-0.90625 1.6562-0.20703 3.3047-0.3125 4.9531-0.3125 4.3203 0 7.4375 0.85547 9.3438 2.5625 1.9141 1.6992 2.875 4.4609 2.875 8.2812z"/>
  </symbol>
  <symbol id="h" overflow="visible">
   <path d="m12.031-30.719v6.7969h7.875v5.4688h-7.875v10.141c0 1.1172 0.21875 1.8711 0.65625 2.2656 0.4375 0.38672 1.3125 0.57812 2.625 0.57812h3.9375v5.4688h-6.5625c-3.0234 0-5.1641-0.62891-6.4219-1.8906-1.2617-1.2578-1.8906-3.3984-1.8906-6.4219v-10.141h-3.7969v-5.4688h3.7969v-6.7969z"/>
  </symbol>
  <symbol id="g" overflow="visible">
   <path d="m19.953-20.422v-12.812h7.6875v33.234h-7.6875v-3.4531c-1.0547 1.4062-2.2148 2.4375-3.4844 3.0938-1.2734 0.65625-2.7422 0.98438-4.4062 0.98438-2.9492 0-5.3711-1.1719-7.2656-3.5156-1.8867-2.3438-2.8281-5.3594-2.8281-9.0469s0.94141-6.7031 2.8281-9.0469c1.8945-2.3438 4.3164-3.5156 7.2656-3.5156 1.6562 0 3.1172 0.33594 4.3906 1 1.2812 0.65625 2.4453 1.6836 3.5 3.0781zm-5.0469 15.484c1.6445 0 2.8945-0.59766 3.75-1.7969 0.86328-1.1953 1.2969-2.9297 1.2969-5.2031 0-2.2812-0.43359-4.0195-1.2969-5.2188-0.85547-1.1953-2.1055-1.7969-3.75-1.7969-1.625 0-2.8711 0.60156-3.7344 1.7969-0.85547 1.1992-1.2812 2.9375-1.2812 5.2188 0 2.2734 0.42578 4.0078 1.2812 5.2031 0.86328 1.1992 2.1094 1.7969 3.7344 1.7969z"/>
  </symbol>
  <symbol id="f" overflow="visible">
   <path d="m16.406-4.9375c1.6328 0 2.8828-0.59766 3.75-1.7969 0.86328-1.1953 1.2969-2.9297 1.2969-5.2031 0-2.2812-0.43359-4.0195-1.2969-5.2188-0.86719-1.1953-2.1172-1.7969-3.75-1.7969-1.6367 0-2.8906 0.60547-3.7656 1.8125-0.875 1.1992-1.3125 2.9336-1.3125 5.2031 0 2.2617 0.4375 3.9961 1.3125 5.2031 0.875 1.1992 2.1289 1.7969 3.7656 1.7969zm-5.0781-15.484c1.0508-1.3945 2.2188-2.4219 3.5-3.0781 1.2812-0.66406 2.7539-1 4.4219-1 2.9453 0 5.3672 1.1719 7.2656 3.5156 1.8945 2.3438 2.8438 5.3594 2.8438 9.0469s-0.94922 6.7031-2.8438 9.0469c-1.8984 2.3438-4.3203 3.5156-7.2656 3.5156-1.668 0-3.1406-0.33594-4.4219-1s-2.4492-1.6914-3.5-3.0781v3.4531h-7.6562v-33.234h7.6562z"/>
  </symbol>
  <symbol id="e" overflow="visible">
   <path d="m0.53125-23.922h7.6562l6.4219 16.234 5.4688-16.234h7.6562l-10.062 26.188c-1.0117 2.6641-2.1953 4.5234-3.5469 5.5781-1.3438 1.0625-3.1211 1.5938-5.3281 1.5938h-4.4219v-5.0156h2.3906c1.3008 0 2.2422-0.21094 2.8281-0.625 0.59375-0.40625 1.0547-1.1484 1.3906-2.2188l0.20312-0.65625z"/>
  </symbol>
  <symbol id="d" overflow="visible">
   <path d="m19.953-4.0625c-1.0547 1.3984-2.2148 2.4219-3.4844 3.0781-1.2734 0.65625-2.7422 0.98438-4.4062 0.98438-2.918 0-5.3281-1.1484-7.2344-3.4531-1.9062-2.3008-2.8594-5.2266-2.8594-8.7812 0-3.582 0.95312-6.5156 2.8594-8.7969s4.3164-3.4219 7.2344-3.4219c1.6641 0 3.1328 0.32812 4.4062 0.98438 1.2695 0.64844 2.4297 1.6797 3.4844 3.0938v-3.5469h7.6875v21.516c0 3.8438-1.2148 6.7734-3.6406 8.7969-2.4297 2.0312-5.9492 3.0469-10.562 3.0469-1.5 0-2.9492-0.11719-4.3438-0.34375-1.3984-0.21875-2.7969-0.57031-4.2031-1.0469v-5.9531c1.3438 0.76953 2.6562 1.3438 3.9375 1.7188s2.5664 0.5625 3.8594 0.5625c2.5078 0 4.3477-0.54688 5.5156-1.6406 1.1641-1.0938 1.75-2.8047 1.75-5.1406zm-5.0469-14.891c-1.5742 0-2.8047 0.58984-3.6875 1.7656-0.88672 1.168-1.3281 2.8203-1.3281 4.9531 0 2.1875 0.42578 3.8516 1.2812 4.9844 0.85156 1.1367 2.0977 1.7031 3.7344 1.7031 1.5938 0 2.832-0.58203 3.7188-1.75 0.88281-1.1758 1.3281-2.8203 1.3281-4.9375 0-2.1328-0.44531-3.7852-1.3281-4.9531-0.88672-1.1758-2.125-1.7656-3.7188-1.7656z"/>
  </symbol>
  <symbol id="m" overflow="visible">
   <path d="m3.4219-9.3125v-14.609h7.6875v2.3906c0 1.293-0.011719 2.918-0.03125 4.875-0.011719 1.9609-0.015625 3.2656-0.015625 3.9219 0 1.9297 0.046875 3.3125 0.14062 4.1562 0.10156 0.84375 0.28125 1.4609 0.53125 1.8438 0.3125 0.5 0.71875 0.88672 1.2188 1.1562 0.50781 0.27344 1.0938 0.40625 1.75 0.40625 1.5938 0 2.8438-0.60938 3.75-1.8281 0.91406-1.2266 1.375-2.9297 1.375-5.1094v-11.812h7.6406v23.922h-7.6406v-3.4531c-1.1562 1.3867-2.3828 2.4141-3.6719 3.0781-1.2812 0.66406-2.6992 1-4.25 1-2.7734 0-4.8828-0.84766-6.3281-2.5469-1.4375-1.6953-2.1562-4.1602-2.1562-7.3906z"/>
  </symbol>
  <symbol id="l" overflow="visible">
   <path d="m22.359-23.172v5.7969c-1.6367-0.67578-3.2148-1.1875-4.7344-1.5312-1.5234-0.34375-2.9609-0.51562-4.3125-0.51562-1.4609 0-2.543 0.18359-3.25 0.54688-0.69922 0.36719-1.0469 0.92188-1.0469 1.6719 0 0.61719 0.26562 1.0898 0.79688 1.4219 0.53125 0.32422 1.4883 0.5625 2.875 0.71875l1.3438 0.1875c3.9141 0.5 6.5508 1.3242 7.9062 2.4688 1.3516 1.1367 2.0312 2.9219 2.0312 5.3594 0 2.5547-0.94531 4.4688-2.8281 5.75-1.875 1.2812-4.6797 1.9219-8.4062 1.9219-1.5859 0-3.2188-0.125-4.9062-0.375s-3.4219-0.625-5.2031-1.125v-5.8125c1.5195 0.74219 3.082 1.2969 4.6875 1.6719 1.6016 0.36719 3.2344 0.54688 4.8906 0.54688 1.4883 0 2.6094-0.20312 3.3594-0.60938 0.75781-0.41406 1.1406-1.0312 1.1406-1.8438 0-0.6875-0.26172-1.1953-0.78125-1.5312-0.52344-0.33203-1.5586-0.59375-3.1094-0.78125l-1.3438-0.17188c-3.4062-0.42578-5.793-1.2109-7.1562-2.3594-1.3672-1.1562-2.0469-2.9102-2.0469-5.2656 0-2.5312 0.86719-4.4062 2.6094-5.625 1.7383-1.2266 4.3984-1.8438 7.9844-1.8438 1.4062 0 2.8828 0.10938 4.4375 0.32812 1.5508 0.21094 3.2383 0.54297 5.0625 1z"/>
  </symbol>
  <symbol id="k" overflow="visible">
   <path d="m27.734-14.562v14.562h-7.7031v-11.109c0-2.0938-0.046875-3.5312-0.14062-4.3125-0.085937-0.78125-0.24219-1.3594-0.46875-1.7344-0.30469-0.5-0.71094-0.88281-1.2188-1.1562-0.51172-0.28125-1.0938-0.42188-1.75-0.42188-1.5938 0-2.8516 0.61719-3.7656 1.8438-0.90625 1.2305-1.3594 2.9375-1.3594 5.125v11.766h-7.6562v-33.234h7.6562v12.812c1.1445-1.3945 2.3633-2.4219 3.6562-3.0781 1.3008-0.66406 2.7383-1 4.3125-1 2.7578 0 4.8516 0.85156 6.2812 2.5469 1.4375 1.6875 2.1562 4.1523 2.1562 7.3906z"/>
  </symbol>
  <symbol id="j" overflow="visible">
   <path d="m3.6719-23.922h7.6562v23.5c0 3.1953-0.77344 5.6406-2.3125 7.3281-1.543 1.6875-3.7734 2.5312-6.6875 2.5312h-3.7812v-5.0156h1.3281c1.4453 0 2.4414-0.32812 2.9844-0.98438 0.53906-0.65625 0.8125-1.9453 0.8125-3.8594zm0-9.3125h7.6562v6.2344h-7.6562z"/>
  </symbol>
  <symbol id="i" overflow="visible">
   <path d="m15.062-19.031c-1.6992 0-2.9961 0.60938-3.8906 1.8281-0.88672 1.2188-1.3281 2.9766-1.3281 5.2656 0 2.293 0.44141 4.0469 1.3281 5.2656 0.89453 1.2188 2.1914 1.8281 3.8906 1.8281 1.6641 0 2.9375-0.60938 3.8125-1.8281 0.88281-1.2188 1.3281-2.9727 1.3281-5.2656 0-2.2891-0.44531-4.0469-1.3281-5.2656-0.875-1.2188-2.1484-1.8281-3.8125-1.8281zm0-5.4688c4.1133 0 7.3281 1.1094 9.6406 3.3281s3.4688 5.2969 3.4688 9.2344c0 3.9297-1.1562 7.0078-3.4688 9.2344-2.3125 2.2188-5.5273 3.3281-9.6406 3.3281-4.1367 0-7.3711-1.1094-9.7031-3.3281-2.3242-2.2266-3.4844-5.3047-3.4844-9.2344 0-3.9375 1.1602-7.0156 3.4844-9.2344 2.332-2.2188 5.5664-3.3281 9.7031-3.3281z"/>
  </symbol>
 </defs>
 <g>
  <path d="m204.57 114.98h-54.512c-6.7109 0.015626-13.176 2.5352-18.129 7.0664s-8.0352 10.746-8.6445 17.434c-0.042968 0.43359-0.042968 0.875 0 1.3125v67.988-0.003906c0 11.605 4.6094 22.734 12.812 30.938 8.2031 8.2031 19.332 12.812 30.938 12.812h18.461c11.602 0 22.73-4.6094 30.938-12.812 8.2031-8.2031 12.812-19.332 12.812-30.938v-67.984-0.4375-0.78906c0-6.5352-2.6016-12.805-7.2305-17.418-4.6328-4.6133-10.91-7.1914-17.445-7.168zm7.0859 93.801 0.003906-0.003906c0 6.9648-2.7656 13.641-7.6914 18.562-4.9219 4.9219-11.598 7.6875-18.559 7.6875h-18.551c-6.9609 0-13.641-2.7656-18.562-7.6875-4.9219-4.9219-7.6875-11.598-7.6875-18.562v-26.25h45.324c9.4766 0.066406 18.707-3.0117 26.25-8.75zm-113.23 0.52344h0.003906c-10.16 0-19.547-5.4219-24.629-14.219-5.0781-8.8008-5.0781-19.641 0-28.438 5.082-8.8008 14.469-14.219 24.629-14.219 2.3203 0 4.5469 0.92188 6.1875 2.5625s2.5625 3.8672 2.5625 6.1875v39.375c0 2.3203-0.92188 4.5469-2.5625 6.1875s-3.8672 2.5625-6.1875 2.5625zm147.88-4.1133h0.003906c-0.83984-1.4023-1.293-3.0039-1.3125-4.6367v-39.375c0-4.832 3.918-8.75 8.75-8.75 6.6484-0.023437 13.094 2.3008 18.199 6.5625-14.793 10.992-24.137 27.828-25.637 46.199zm-156.62-81.461c0-28.613 22.664-49.352 53.898-49.352h65.012c31.238 0 53.898 20.738 53.898 49.352h0.003906c0 4.832-3.918 8.75-8.75 8.75s-8.75-3.918-8.75-8.75c0-21.875-18.898-31.852-36.398-31.852h-65.016c-17.5 0-36.398 9.9766-36.398 31.852 0 4.832-3.918 8.75-8.75 8.75s-8.75-3.918-8.75-8.75zm34.211 116.9c0 2.3203-0.92188 4.5469-2.5625 6.1875-1.6406 1.6406-3.8672 2.5625-6.1875 2.5625h-3.5859c-5.8008 0-11.367-2.3047-15.469-6.4062s-6.4062-9.668-6.4062-15.469c0-4.832 3.918-8.75 8.75-8.75s8.75 3.918 8.75 8.75c0 1.1602 0.46094 2.2734 1.2812 3.0938s1.9336 1.2812 3.0938 1.2812h3.5859c2.3203 0 4.5469 0.92188 6.1875 2.5625 1.6406 1.6406 2.5625 3.8672 2.5625 6.1875zm428.75-125.65h-54.773c-6.7109 0.015626-13.176 2.5352-18.129 7.0664s-8.0352 10.746-8.6445 17.434c-0.042968 0.43359-0.042968 0.875 0 1.3125v67.988-0.003906c0 11.605 4.6094 22.734 12.812 30.938 8.2031 8.2031 19.332 12.812 30.938 12.812h18.461c11.602 0 22.73-4.6094 30.938-12.812 8.2031-8.2031 12.812-19.332 12.812-30.938v-67.984-0.4375-0.78906c0-6.5352-2.6016-12.805-7.2305-17.418-4.6328-4.6133-10.91-7.1914-17.445-7.168zm7.0859 93.801 0.003906-0.003906c0 6.9648-2.7656 13.641-7.6875 18.562-4.9258 4.9219-11.602 7.6875-18.562 7.6875h-18.812c-6.9609 0-13.641-2.7656-18.562-7.6875-4.9219-4.9219-7.6875-11.598-7.6875-18.562v-26.25h45.324c9.3281-0.03125 18.391-3.1016 25.812-8.75zm-105.79-3.5859 0.003907-0.003906c-1.5-18.371-10.84-35.207-25.637-46.199 5.0352-4.2031 11.379-6.5234 17.938-6.5625 2.3203 0 4.5469 0.92188 6.1875 2.5625s2.5625 3.8672 2.5625 6.1875v39.375c-0.019531 1.6328-0.47266 3.2344-1.3125 4.6367zm176.05-24.328c-0.023438 7.5352-3.0273 14.754-8.3555 20.082-5.3281 5.3281-12.547 8.332-20.082 8.3555-4.832 0-8.75-3.918-8.75-8.75v-39.375c0-4.832 3.918-8.75 8.75-8.75 7.543 0 14.773 2.9961 20.109 8.3281 5.332 5.332 8.3281 12.566 8.3281 20.109zm-138.6-106.49h65.012c31.238 0 53.898 20.738 53.898 49.352h0.003906c0 4.832-3.918 8.75-8.75 8.75s-8.75-3.918-8.75-8.75c0-21.875-18.898-31.852-36.398-31.852h-65.016c-17.5 0-36.398 9.9766-36.398 31.852 0 4.832-3.918 8.75-8.75 8.75s-8.75-3.918-8.75-8.75c0-28.613 22.664-49.352 53.898-49.352zm128.8 245.61v118.82c-0.023438 8.9727-3.6133 17.566-9.9844 23.887-6.3711 6.3203-14.992 9.8477-23.965 9.8008h-122.5v-65.012c0.003906-12.324-3.3477-24.414-9.7031-34.977-6.3516-10.559-15.457-19.191-26.348-24.961v-27.562c-0.13281-1.8945-0.13281-3.793 0-5.6875 11.848-0.10938 23.191-4.7969 31.656-13.082 8.4648-8.2852 13.395-19.527 13.758-31.367 1.5156-0.089843 3.0352-0.089843 4.5508 0h92.137c13.312 0.019532 26.082 5.3008 35.52 14.691 9.4414 9.3906 14.789 22.129 14.879 35.445zm-171.94-92.488c1.5703-1.957 2.8398-4.1406 3.7617-6.4766 1.8672 1.6406 2.9492 3.9922 2.9766 6.4766 0 1.1602 0.46094 2.2734 1.2812 3.0938s1.9336 1.2812 3.0938 1.2812h3.5859c2.3203 0 4.5469 0.92188 6.1875 2.5625 1.6406 1.6406 2.5625 3.8672 2.5625 6.1875-0.011719 2.6641-1.2344 5.1758-3.3242 6.8242-4.3359-8.6797-11.406-15.688-20.125-19.949zm-70-24.938h-54.512c-6.6094 0.14062-12.934 2.707-17.773 7.2109-4.8398 4.5-7.8555 10.621-8.4766 17.203-0.042969 0.43359-0.042969 0.875 0 1.3125v67.988-0.003906c0 11.605 4.6094 22.734 12.812 30.938 8.207 8.2031 19.336 12.812 30.938 12.812h18.375c11.602 0 22.73-4.6094 30.938-12.812 8.2031-8.2031 12.812-19.332 12.812-30.938v-67.984-0.4375-0.78906c0-6.5664-2.625-12.859-7.293-17.48-4.668-4.6172-10.992-7.1758-17.559-7.1055zm7 93.801c0 6.9609-2.7656 13.637-7.6875 18.562-4.9219 4.9219-11.602 7.6875-18.562 7.6875h-17.762c-6.9609 0-13.641-2.7656-18.562-7.6875-4.9219-4.9258-7.6875-11.602-7.6875-18.562v-26.25h45.238c9.4766 0.078125 18.715-3 26.25-8.75zm-141.31-28c-0.023438-7.5508 2.9648-14.797 8.3047-20.137 5.3359-5.3359 12.586-8.3242 20.133-8.3008 2.3203 0 4.5469 0.92188 6.1875 2.5625s2.5625 3.8672 2.5625 6.1875v39.375c0 2.3203-0.92188 4.5469-2.5625 6.1875s-3.8672 2.5625-6.1875 2.5625c-7.543 0-14.773-2.9961-20.109-8.3281-5.332-5.3359-8.3281-12.566-8.3281-20.109zm175 19.688v-39.375c0-4.832 3.918-8.75 8.75-8.75 10.16 0 19.547 5.418 24.629 14.219 5.0781 8.7969 5.0781 19.637 0 28.438-5.082 8.7969-14.469 14.219-24.629 14.219-4.832 0-8.75-3.918-8.75-8.75zm-36.488-108.68h-64.922c-17.5 0-36.398 9.9766-36.398 31.852h-0.003906c0 4.832-3.918 8.75-8.75 8.75s-8.75-3.918-8.75-8.75c0-28.613 22.664-49.352 53.898-49.352h64.926c31.238 0 53.988 20.738 53.988 49.352 0 4.832-3.918 8.75-8.75 8.75s-8.75-3.918-8.75-8.75c0-21.875-18.898-31.852-36.488-31.852zm63.789 228.11v118.82c-0.023438 8.9258-3.5781 17.484-9.8906 23.797s-14.871 9.8672-23.797 9.8906h-125.12c-8.9258-0.023438-17.484-3.5781-23.797-9.8906s-9.8672-14.871-9.8906-23.797v-118.82c0.023438-13.359 5.3398-26.168 14.789-35.613 9.4453-9.4453 22.25-14.766 35.609-14.789h91.703c13.359 0.023437 26.164 5.3438 35.609 14.789 9.4492 9.4453 14.766 22.254 14.789 35.613zm-210 0v65.012h-122.5c-8.9414 0-17.52-3.5469-23.852-9.8633-6.332-6.3125-9.8984-14.883-9.9219-23.824v-118.82c0.023438-13.359 5.3398-26.168 14.785-35.613 9.4492-9.4453 22.254-14.766 35.613-14.789h96.164c0.42188 15.039 8.207 28.91 20.824 37.102-0.89062 2.6211-1.332 5.3711-1.3125 8.1367 0.066407 7.3047 2.1641 14.449 6.0586 20.629 3.8945 6.1836 9.4297 11.156 15.992 14.371-19.906 12.391-31.961 34.219-31.852 57.664zm27.387-92.488c0-4.832 3.918-8.75 8.75-8.75s8.75 3.918 8.75 8.75c0 1.1602 0.46094 2.2734 1.2812 3.0938 0.82031 0.82031 1.9336 1.2812 3.0938 1.2812h3.2383c4.832 0 8.75 3.918 8.75 8.75s-3.918 8.75-8.75 8.75h-3.5c-5.7578-0.070312-11.254-2.4023-15.297-6.5-4.0469-4.0938-6.3164-9.6172-6.3164-15.375zm-19.16-256.73h27.648v36.664c-0.023438 5.3516 2.0859 10.492 5.8633 14.289 3.7773 3.793 8.9102 5.9219 14.262 5.9219h44.273l11.812 23.102c0.34766 0.58984 0.98047 0.95312 1.6641 0.95312s1.3164-0.36328 1.6641-0.95312l11.812-23.102h44.188c5.3594 0 10.5-2.1289 14.289-5.918 3.793-3.793 5.9219-8.9336 5.9219-14.293v-36.664h27.562c1.0586-0.046876 1.9844-0.72656 2.3477-1.7188 0.36328-0.99609 0.09375-2.1094-0.68359-2.8281l-29.227-24.676v-8.75c0.023438-5.375-2.0977-10.539-5.8906-14.352-3.793-3.8086-8.9453-5.9492-14.32-5.9492h-115.41c-5.3359 0-10.457 2.1211-14.23 5.8945-3.7734 3.7734-5.8945 8.8945-5.8945 14.23v8.75l-29.227 24.852c-0.86328 0.66406-1.207 1.8086-0.85156 2.8398 0.35938 1.0352 1.3359 1.7227 2.4297 1.707zm48.648 8.75 13.648-28.613v0.003906c1.3789-2.8477 3.5273-5.2539 6.2031-6.9414 2.6758-1.6836 5.7734-2.5859 8.9375-2.5977h56.176-0.003906c3.1641 0.011719 6.2617 0.91406 8.9375 2.5977 2.6758 1.6875 4.8242 4.0938 6.2031 6.9414l13.648 28.785c1.8359 3.9023 2.0547 8.3711 0.61328 12.434-1.4414 4.0625-4.4297 7.3945-8.3125 9.2656l-1.4883 0.61328c-3.8594 1.7852-8.2617 1.9844-12.27 0.5625-4.0078-1.4219-7.2969-4.3555-9.168-8.1758l-0.61328-1.3984c-1.4883-3.125-4.6758-5.082-8.1367-4.9883h-35c-3.3672 0.011719-6.4258 1.9492-7.875 4.9883l-0.875 1.3984c-1.8555 3.8789-5.168 6.8633-9.2188 8.3086-4.0508 1.4414-8.5039 1.2227-12.395-0.60547l-1.4883-0.69922v-0.003906c-3.8516-1.9023-6.8008-5.2461-8.207-9.3047-1.4102-4.0625-1.1641-8.5117 0.68359-12.395zm77.613-24.148c0-1.5586 0.9375-2.9609 2.375-3.5586 1.4414-0.59375 3.0938-0.26562 4.1953 0.83594 1.1016 1.1016 1.4336 2.7578 0.83594 4.1953-0.59766 1.4375-2 2.3789-3.5586 2.3789-2.125 0-3.8477-1.7266-3.8477-3.8516zm0 15.836c0-1.5547 0.9375-2.9609 2.375-3.5547 1.4414-0.59766 3.0938-0.26562 4.1953 0.83203 1.1016 1.1016 1.4336 2.7578 0.83594 4.1992-0.59766 1.4375-2 2.375-3.5586 2.375-2.125 0-3.8477-1.7227-3.8477-3.8516zm7.9609-7.875c-0.16797-1.1094 0.15625-2.2344 0.88672-3.0859 0.73047-0.85156 1.7969-1.3398 2.9219-1.3398 1.1211 0 2.1875 0.48828 2.918 1.3398s1.0547 1.9766 0.88672 3.0859c0.16797 1.1094-0.15625 2.2383-0.88672 3.0898-0.73047 0.85156-1.7969 1.3398-2.918 1.3398-1.125 0-2.1914-0.48828-2.9219-1.3398-0.73047-0.85156-1.0547-1.9805-0.88672-3.0898zm-15.836 0c-0.16797-1.1094 0.15234-2.2344 0.88672-3.0859 0.73047-0.85156 1.7969-1.3398 2.918-1.3398 1.1211 0 2.1875 0.48828 2.9219 1.3398 0.73047 0.85156 1.0547 1.9766 0.88672 3.0859 0.16797 1.1094-0.15625 2.2383-0.88672 3.0898-0.73438 0.85156-1.8008 1.3398-2.9219 1.3398-1.1211 0-2.1875-0.48828-2.918-1.3398-0.73438-0.85156-1.0547-1.9805-0.88672-3.0898zm-51.887 1.6641v-3.7617c0-0.96875 0.78125-1.75 1.75-1.75h4.4609c0.46484 0 0.91016-0.18359 1.2383-0.51172 0.32812-0.32812 0.51172-0.77344 0.51172-1.2383v-4.4648c0-0.96484 0.78516-1.75 1.75-1.75h4.1133c0.46484 0 0.91016 0.1875 1.2383 0.51562 0.32813 0.32813 0.51172 0.77344 0.51172 1.2344v4.4648c0 0.48047 0.19531 0.9375 0.54297 1.2695 0.34766 0.32813 0.81641 0.50391 1.293 0.48047h4.1133c0.46484 0 0.91016 0.18359 1.2383 0.51172s0.51172 0.77344 0.51172 1.2383v3.7617c0.023438 0.48047-0.14844 0.94531-0.48047 1.293-0.33203 0.34766-0.78906 0.54688-1.2695 0.54297h-4.375c-0.48047-0.023438-0.94531 0.15234-1.293 0.48047-0.34766 0.33203-0.54688 0.79297-0.54297 1.2695v5.1641c0 0.46484-0.1875 0.91016-0.51562 1.2383-0.32813 0.32812-0.77344 0.51172-1.2344 0.51172h-4.1133c-0.96875 0-1.75-0.78516-1.75-1.75v-4.375c0-0.46484-0.18359-0.91016-0.51172-1.2383-0.32812-0.32812-0.77344-0.51172-1.2383-0.51172h-4.4648c-0.61719-0.011719-1.1875-0.34766-1.4922-0.88672-0.30859-0.53906-0.30469-1.1992 0.007812-1.7383z"/>
  <use x="70" y="691.25" xlink:href="#n"/>
  <use x="102.109375" y="691.25" xlink:href="#b"/>
  <use x="123.683594" y="691.25" xlink:href="#c"/>
  <use x="153.355469" y="691.25" xlink:href="#a"/>
  <use x="182.878906" y="691.25" xlink:href="#h"/>
  <use x="203.792969" y="691.25" xlink:href="#c"/>
  <use x="233.464844" y="691.25" xlink:href="#g"/>
  <use x="280.011719" y="691.25" xlink:href="#f"/>
  <use x="311.328125" y="691.25" xlink:href="#e"/>
  <use x="355.078125" y="691.25" xlink:href="#a"/>
  <use x="384.601562" y="691.25" xlink:href="#d"/>
  <use x="415.917969" y="691.25" xlink:href="#m"/>
  <use x="447.066406" y="691.25" xlink:href="#l"/>
  <use x="488.339844" y="691.25" xlink:href="#b"/>
  <use x="509.914062" y="691.25" xlink:href="#a"/>
  <use x="539.4375" y="691.25" xlink:href="#k"/>
  <use x="570.582031" y="691.25" xlink:href="#a"/>
  <use x="600.105469" y="691.25" xlink:href="#b"/>
  <use x="621.679688" y="691.25" xlink:href="#j"/>
  <use x="636.679688" y="691.25" xlink:href="#i"/>
 </g>
</svg>
