<?xml version="1.0" encoding="UTF-8"?>
<svg width="30pt" height="30pt" version="1.1" viewBox="0 0 700 700" xmlns="http://www.w3.org/2000/svg">
 <path d="m581.35 48.648c-6.3906-6.5273-14.586-11-23.535-12.84-8.9492-1.8398-18.242-0.96094-26.691 2.5156l-396.9 158.9c-11.836 5.0742-21.039 14.828-25.422 26.938-4.3828 12.109-3.5547 25.492 2.293 36.969 5.8438 11.477 16.18 20.016 28.551 23.594l153.48 40.426v-0.003906c2.6445 0.70703 5.0547 2.1016 6.9922 4.0352 1.9336 1.9336 3.3242 4.3477 4.0312 6.9922l40.426 153.82c2.3164 9.5703 7.6484 18.141 15.215 24.445 7.5625 6.3047 16.957 10.004 26.785 10.555h3.1523c9.2891 0.066406 18.383-2.6953 26.07-7.9141s13.609-12.652 16.977-21.312l158.73-396.9c3.5-8.4297 4.4023-17.715 2.5977-26.664-1.8086-8.9453-6.25-17.152-12.746-23.562zm-18.551 38.852-158.73 396.73c-1.6562 4.0195-4.9219 7.1641-9.0039 8.6719-4.082 1.5078-8.6094 1.2383-12.48-0.74219-3.875-1.9805-6.7461-5.4922-7.9141-9.6797l-40.426-153.65c-0.85938-2.7227-1.9727-5.3594-3.3242-7.875l89.074-88.898c3.457-3.9961 4.6523-9.4727 3.1758-14.543-1.4766-5.0742-5.4219-9.0508-10.484-10.57-5.0586-1.5156-10.543-0.36328-14.566 3.0625l-88.898 88.898c-2.5156-1.3477-5.1523-2.4609-7.875-3.3242l-153.83-40.25c-4.1875-1.168-7.6992-4.0391-9.6797-7.9141-1.9805-3.8711-2.25-8.3984-0.74219-12.48 1.5078-4.082 4.6523-7.3477 8.6719-9.0039l396.73-158.73c2.8516-1.3906 6.0625-1.8711 9.1914-1.3672 3.1328 0.5 6.0352 1.957 8.3086 4.168 2.2344 2.2578 3.707 5.1641 4.207 8.3008 0.50391 3.1367 0.011719 6.3555-1.4062 9.1992z"/>
</svg>
